<?xml version="1.0" standalone="no"?><!DOCTYPE svg PUBLIC "-//W3C//DTD SVG 1.1//EN" "http://www.w3.org/Graphics/SVG/1.1/DTD/svg11.dtd"><svg t="1764663601233" class="icon" viewBox="0 0 4055 1024" version="1.1" xmlns="http://www.w3.org/2000/svg" p-id="2016" xmlns:xlink="http://www.w3.org/1999/xlink" width="791.9921875" height="200"><path d="M62.89408 494.44864L0 393.78944 630.21056 0l62.89408 100.6592-342.4256 213.97504h-84.11136v52.57216L62.8736 494.44864z m203.6736-83.1488l-183.84896 114.8928 62.91456 100.6592 262.7584-164.20864h-141.824v-51.34336z m212.43904 51.34336l-155.66848 97.28h223.98976l155.648-97.28H479.0272z m278.54848-34.0992v-113.90976h-41.69728l79.79008-49.8688 62.91456 100.6592-101.00736 63.11936zM310.4768 707.91168h-43.90912v-112.5376l-101.13024 63.20128 62.91456 100.6592 82.1248-51.32288z m70.57408 0h223.98976l-293.96992 183.7056-62.89408-100.6592 132.87424-83.0464z m376.50432-95.29344v-52.71552h-139.63264l260.44416-162.75456 62.91456 100.67968-183.7056 114.7904z m-81.92 95.29344h81.92v-51.2l203.55072-127.1808L1024 630.23104 393.78944 1024l-62.89408-100.6592L675.6352 707.91168z m-30.37184-393.27744H421.2736l291.6352-182.25152 62.91456 100.6592-130.56 81.59232z m2324.23424-168.7552c-14.5408-12.16512-33.75104-18.30912-57.67168-18.30912s-42.43456 6.144-57.26208 18.30912c-14.80704 12.22656-22.24128 28.4672-22.24128 48.72192 0 20.2752 7.39328 37.2736 22.24128 49.43872 14.78656 12.22656 33.87392 18.30912 57.26208 18.30912 23.40864 0 43.08992-6.08256 57.67168-18.30912 14.5408-12.1856 21.83168-28.69248 21.83168-49.43872 0-20.74624-7.2704-36.49536-21.83168-48.72192z m-1344.9216 184.66816c-32.9728-19.49696-71.2704-29.22496-114.8928-29.22496-41.0624 0-78.29504 9.60512-111.8208 28.83584-33.4848 19.21024-61.27616 46.34624-83.3536 81.408l-1.18784 1.9456v-100.49536h-130.08896v571.8016h130.08896V655.11424l1.55648 2.62144c22.3232 35.04128 49.9712 62.17728 82.98496 81.408 32.9728 19.21024 70.2464 28.83584 111.8208 28.83584 43.6224 0 81.92-9.74848 114.8928-29.22496 32.9728-19.49696 58.7776-46.75584 77.49632-81.8176 18.69824-35.04128 28.0576-75.65312 28.0576-121.89696 0-46.22336-9.35936-87.61344-28.0576-122.6752-18.71872-35.04128-44.544-62.32064-77.49632-81.79712v-0.04096zM1582.4896 603.5456a118.272 118.272 0 0 1-44.01152 46.3872c-18.69824 11.1616-40.26368 16.73216-64.65536 16.73216a149.9136 149.9136 0 0 1-69.3248-16.73216 181.43232 181.43232 0 0 1-57.28256-46.36672 226.9184 226.9184 0 0 1-38.56384-68.54656 231.2192 231.2192 0 0 1 38.56384-68.9152 178.72896 178.72896 0 0 1 57.28256-46.75584 150.03648 150.03648 0 0 1 69.3248-16.75264c24.3712 0 45.95712 5.57056 64.65536 16.75264 18.69824 11.18208 33.36192 26.74688 44.032 46.75584 10.6496 19.98848 15.93344 42.96704 15.93344 68.9152 0 25.96864-5.3248 48.8448-15.95392 68.54656z m629.80096-290.48832l-11.22304 98.05824c-22.26176-34.816-50.09408-61.8496-83.456-80.91648-33.4848-19.23072-71.00416-28.83584-112.5376-28.83584s-81.28512 9.728-114.50368 29.22496c-33.23904 19.47648-59.10528 46.75584-77.49632 81.79712-18.432 35.04128-27.648 75.93984-27.648 122.6752 0 46.75584 9.216 86.8352 27.648 121.89696 18.432 35.06176 44.25728 62.32064 77.49632 81.8176 33.21856 19.47648 71.39328 29.22496 114.4832 29.22496 43.1104 0 79.07328-9.6256 112.55808-28.83584 33.4848-19.18976 61.2352-46.32576 83.29216-81.32608l11.34592 98.44736h134.7584l-25.68192-221.22496 25.7024-222.0032h-134.73792z m-101.66272 336.85504a147.6608 147.6608 0 0 1-68.93568 16.75264c-24.39168 0-45.9776-5.57056-64.67584-16.75264a118.272 118.272 0 0 1-44.01152-46.34624c-10.6496-19.74272-15.95392-42.5984-15.95392-68.54656s5.3248-48.92672 15.9744-68.93568c10.6496-19.98848 25.2928-35.55328 43.99104-46.73536s40.22272-16.75264 64.67584-16.75264c24.43264 0 47.39072 5.57056 68.93568 16.75264 21.504 11.18208 40.61184 26.74688 57.26208 46.73536a227.59424 227.59424 0 0 1 38.97344 68.93568c-9.35936 25.96864-22.36416 48.8448-38.97344 68.54656a186.88 186.88 0 0 1-57.26208 46.34624z m540.2624-330.28096c21.77024-12.1856 47.73888-18.30912 77.88544-18.30912 9.87136 0.08192 19.8656 0.73728 30.0032 2.048 10.11712 1.24928 19.59936 2.94912 28.42624 5.03808v112.14848a375.31648 375.31648 0 0 0-40.46848-7.00416c-13.5168-1.55648-26.2144-2.33472-38.1952-2.33472-25.96864 0-49.3568 5.4272-70.10304 16.34304-20.7872 10.87488-37.13024 27.79136-49.09056 50.62656-11.96032 22.8352-17.92 51.67104-17.92 86.44608v191.65184h-130.08896v-297.5744l-28.0576-145.69472h131.66592l19.74272 119.07072a245.248 245.248 0 0 1 31.25248-62.62784 165.23264 165.23264 0 0 1 54.92736-49.82784z m196.3008 436.6336V308.30592l64.65536 12.4928 65.45408-12.4928v447.91808h-130.10944z m501.67808-91.17696c-35.328 0-60.08832-6.8608-74.38336-20.64384-14.31552-13.74208-21.44256-37.7856-21.44256-72.06912v-161.25952h196.28032v-98.14016h-196.28032V196.11648h-74.81344l-55.31648 126.976-92.73344 30.4128v57.61024h92.73344v179.95776c0 35.328 6.8608 66.23232 20.64384 92.73344 13.74208 26.48064 35.06176 47.12448 63.8976 61.91104 28.81536 14.78656 66.31424 22.17984 112.55808 22.17984 26.46016 0 52.16256-2.72384 77.08672-8.17152 24.92416-5.4272 44.93312-11.30496 59.96544-17.53088v-101.2736c-15.5648 7.7824-31.90784 13.78304-49.09056 17.92-17.14176 4.17792-36.88448 6.20544-59.1872 6.20544l0.08192 0.04096z m416.4608-18.82112l145.98144-333.25056 137.8304-0.08192-221.22496 463.50336c-13.5168 29.0816-29.85984 52.4288-49.0496 70.10304-19.2512 17.65376-40.16128 30.39232-62.73024 38.17472-22.58944 7.7824-46.10048 11.69408-70.49216 11.69408-29.0816 0-55.33696-3.64544-78.68416-10.91584a250.63424 250.63424 0 0 1-66.21184-31.90784v-93.51168c21.83168 14.04928 42.55744 24.1664 62.30016 30.39232 19.74272 6.22592 41.5744 9.35936 65.4336 9.35936 21.31968 0 40.30464-4.79232 56.91392-14.39744 16.5888-9.6256 30.35136-26.624 41.2672-50.9952l2.72384-6.22592h-55.7056l-195.52256-415.19104h143.36l143.81056 333.25056z" p-id="2017"></path></svg>