<svg height="101" viewBox="0 0 188 101" width="188" xmlns="http://www.w3.org/2000/svg"><path d="m25.59 0c12.1323 0 20.1866 7.80566 23.7549 14.8924l-9.8894 5.8542c-3.7722-5.6488-7.8503-8.8327-13.8655-8.8327-5.7093 0-9.7874 3.3893-9.7874 8.0111 0 4.327974 2.5458283 6.8805526 8.405027 9.1075478l5.256573 1.9846522c15.1909 5.4435 21.8178 12.1194 21.8178 22.39 0 13.968-13.1518 21.2601-25.2842 21.2601-12.744 0-22.73533-7.6002-25.9978-17.6654l10.2972-5.4434c2.5488 5.7515 7.3405 10.8868 15.7006 10.8868 6.3211 0 11.4187-3.0812 11.4187-8.8327 0-5.8543-3.6703-8.4219-11.6226-11.4004l-4.5878-1.6433-.7355463-.274686c-10.2378112-3.8800737-17.9217437-9.2458814-17.9217437-20.882714 0-11.29772 10.29719-19.4115 23.04119-19.4115zm82.785 1.23247h13.356v71.89423h-10.195l-37.2128-47.3475v47.3475h-13.3557v-71.89423h10.2971l37.1104 47.45023zm79.217 0-34.867 60.28853h35.275v11.6057h-56.584l34.868-60.3911h-32.93v-11.50313zm-176.7098 96.58613.471-.146.5253 1.7517-.277763.0783926-.8990683.2878866c-.6410359.1978088-1.4169747.4072208-2.2284287.5094208-.36226.055-.7064.073-1.03243.073-1.06866 0-1.93808-.237-2.60825-.7297-1.03243-.7482-1.53959-2.0072-1.53959-3.7224v-3.2297c0-1.7152.50716-2.9742 1.53959-3.7223.88753-.6386 2.10109-.8758 3.64068-.6569 1.15922.146 2.24596.5109 2.97046.7481.1631.0548.308.0913.4348.1278l-.5253 1.7517-.471-.146-.4818847-.1588044c-.61287925-.19624-1.3877153-.4169734-2.1625453-.5162956-1.05054-.146-1.84751-.0365-2.33655.3284-.52528.3832-.79697 1.1495-.79697 2.2443v3.2297c0 1.0948.27169 1.8612.79697 2.2444.48904.3649 1.28601.4744 2.33655.3284.99621-.1277 1.99243-.4562 2.64443-.6751zm11.6466-7.7731c.8332 1.04 1.2679 2.4815 1.2679 4.288 0 1.8064-.4347 3.2479-1.2679 4.2879-.4528.5657-1.0324.9854-1.7026 1.2773-.6702.2923-1.4309.4383-2.2822.4383s-1.6121-.146-2.2822-.4383c-.6702-.2919-1.2498-.7116-1.7026-1.2773-.8332-1.04-1.2679-2.4815-1.2679-4.2879 0-1.8065.4347-3.248 1.2679-4.288.4528-.5657 1.0324-1.0036 1.7026-1.2956.6701-.2919 1.4309-.4379 2.2822-.4379s1.612.146 2.2822.4379c.6702.292 1.2498.7299 1.7026 1.2956zm-1.3947 7.4264c.5615-.6934.8513-1.7882.8513-3.1384 0-1.3686-.2898-2.4451-.8513-3.1385s-1.4309-1.0583-2.5901-1.0583c-1.1411 0-2.0106.3649-2.572 1.0583-.5615.6934-.8695 1.7699-.8695 3.1385 0 1.3502.308 2.445.8695 3.1384.5614.6934 1.4309 1.0401 2.572 1.0401 1.1592 0 2.0286-.3467 2.5901-1.0401zm11.4473-8.9774h1.8113v11.6775h-2.0286l-4.963-8.4478v8.4478h-1.8112v-11.6775h2.0286l4.9629 8.4665zm11.1394 0h1.8113v11.6775h-2.0286l-4.963-8.4478v8.4478h-1.8112v-11.6775h2.0286l4.9629 8.4665zm6.1221 9.835h4.9086v1.8245h-6.7198v-11.6595h6.3032v1.8247h-4.492v2.7005h4.166v1.8247h-4.166zm14.2367-.5109.471-.146.5252 1.7517-.2777333.0783926-.8990104.2878866c-.6410523.1978088-1.4170163.4072208-2.2284563.5094208-.3622.055-.7064.073-1.0324.073-1.0687 0-1.9381-.237-2.6083-.7297-1.0324-.7482-1.5395-2.0072-1.5395-3.7224v-3.2297c0-1.7152.5071-2.9742 1.5395-3.7223.8876-.6386 2.1011-.8758 3.6407-.6569 1.1592.146 2.246.5109 2.9705.7481.163.0548.3079.0913.4347.1278l-.5252 1.7517-.471-.146-.481882-.1588044c-.6128736-.19624-1.3876958-.4169734-2.162518-.5162956-1.0506-.146-1.8475-.0365-2.3366.3284-.5253.3832-.797 1.1495-.797 2.2443v3.2297c0 1.0948.2717 1.8612.797 2.2444.4891.3649 1.286.4744 2.3366.3284.9962-.1277 1.9924-.4562 2.6444-.6751zm9.8353-9.3241v1.8247h-2.8256v9.8528h-1.8113v-9.8528h-2.8075v-1.8247zm14.0374 0v1.8247h-2.8256v9.8528h-1.8112v-9.8528h-2.8075v-1.8247zm10.433 1.551c.8332 1.04 1.2679 2.4815 1.2679 4.288 0 1.8064-.4347 3.2479-1.2679 4.2879-.4528.5657-1.0324.9854-1.7026 1.2773-.6701.2923-1.4309.4383-2.2822.4383s-1.612-.146-2.2822-.4383c-.6702-.2919-1.2498-.7116-1.7026-1.2773-.8332-1.04-1.2679-2.4815-1.2679-4.2879 0-1.8065.4347-3.248 1.2679-4.288.4528-.5657 1.0324-1.0036 1.7026-1.2956.6702-.2919 1.4309-.4379 2.2822-.4379s1.6121.146 2.2822.4379c.6702.292 1.2498.7299 1.7026 1.2956zm-1.3947 7.4264c.5615-.6934.8513-1.7882.8513-3.1384 0-1.3686-.2898-2.4451-.8513-3.1385-.5614-.6934-1.4309-1.0583-2.5901-1.0583-1.1411 0-2.0105.3649-2.572 1.0583s-.8694 1.7699-.8694 3.1385c0 1.3502.3079 2.445.8694 3.1384s1.4309 1.0401 2.572 1.0401c1.1592 0 2.0287-.3467 2.5901-1.0401zm11.8454.8576h4.909v1.8245h-6.72v-11.6595h6.303v1.8247h-4.492v2.7005h4.166v1.8247h-4.166zm8.169 1.8425h-1.829l1.195-11.6775h2.971l2.228 8.9956 2.228-8.9956h2.97l1.196 11.6775h-1.83l-.978-9.6886-2.536 9.6886h-2.101l-2.517-9.6886zm20.45-10.6192c.779.7116 1.213 1.7334 1.213 2.8282 0 1.1131-.434 2.1167-1.213 2.8465-.363.3285-.779.6022-1.25.7847-.453.1642-.942.2554-1.431.2554h-3.152v3.9044h-1.811v-11.6775h4.963c.489 0 .978.0912 1.431.2737.471.1825.887.4379 1.25.7846zm-2.681 4.8901c.996 0 2.083-.7116 2.083-2.0619 0-1.3502-1.087-2.0618-2.083-2.0618h-3.152v4.1237zm14.382-4.3974c.833 1.04 1.268 2.4815 1.268 4.288 0 1.8064-.435 3.2479-1.268 4.2879-.453.5657-1.033.9854-1.703 1.2773-.67.2923-1.431.4383-2.282.4383-.852 0-1.612-.146-2.282-.4383-.671-.2919-1.25-.7116-1.703-1.2773-.833-1.04-1.268-2.4815-1.268-4.2879 0-1.8065.435-3.248 1.268-4.288.453-.5657 1.032-1.0036 1.703-1.2956.67-.2919 1.43-.4379 2.282-.4379.851 0 1.612.146 2.282.4379.67.292 1.25.7299 1.703 1.2956zm-1.395 7.4264c.561-.6934.851-1.7882.851-3.1384 0-1.3686-.29-2.4451-.851-3.1385-.562-.6934-1.431-1.0583-2.59-1.0583-1.141 0-2.011.3649-2.572 1.0583-.562.6934-.87 1.7699-.87 3.1385 0 1.3502.308 2.445.87 3.1384.561.6934 1.431 1.0401 2.572 1.0401 1.159 0 2.028-.3467 2.59-1.0401zm16.628-8.9592h1.829c.09 1.4598-.054 2.9195-.417 4.434-.434 1.7334-1.086 3.2297-1.666 4.5434l-.416.9792852c-.260222.624437-.477333 1.1920148-.598 1.7026148h-2.446c-.101875-.4559375-.245938-.9619141-.414854-1.517832l-.327146-1.054568c-.308-.9853-.634-2.0619-.942-3.2297-.308 1.2408-.67 2.3539-.996 3.3757l-.462531 1.473481c-.102734.3387517-.192612.655919-.262469.952919h-2.391c-.174125-.6701625-.486828-1.4384781-.865758-2.3046789l-.520418-1.1877891c-.477184-1.111136-.961024-2.346112-1.293824-3.732832-.381-1.5145-.526-2.9742-.435-4.434h1.829c-.204348 2.8877391.658979 5.3064423 1.530722 7.3519755l.389278.8956245c.181.4196.344.8028.507 1.2043.073-.2555.163-.511.254-.7847l.258328-.81022c.697734-2.2125948 1.437783-4.84018 1.534672-7.85698h1.83c.108 3.2115 1.032 6.1492 1.775 8.5395.09.3285.199.6387.289.9306.163-.4014.326-.8029.526-1.2225l.383912-.8956245c.863192-2.0455332 1.738088-4.4642364 1.518088-7.3519755zm5.669 9.8168h4.908v1.8245h-6.719v-11.6595h6.303v1.8247h-4.492v2.7005h4.166v1.8247h-4.166zm13.639 1.8425c-.073-1.6418-1.105-2.6636-2.59-3.9044h-2.5v3.9044h-1.811v-11.6593h4.963c.507 0 .978.0913 1.449.2555.453.1825.887.4562 1.231.7846.779.7299 1.214 1.7334 1.214 2.8282 0 1.1131-.435 2.1167-1.214 2.8283-.289.2919-.634.5109-.996.6934.308.3102.598.6204.87.9853.76.9853 1.141 2.0436 1.195 3.211v.073zm-5.09-5.7291h3.152c1.014 0 2.083-.7298 2.083-2.0619 0-1.332-1.069-2.0436-2.083-2.0436h-3.152z" fill="#fff"/></svg>