<?xml version="1.0" standalone="no"?><!DOCTYPE svg PUBLIC "-//W3C//DTD SVG 1.1//EN" "http://www.w3.org/Graphics/SVG/1.1/DTD/svg11.dtd"><svg t="1764663574863" class="icon" viewBox="0 0 1925 1024" version="1.1" xmlns="http://www.w3.org/2000/svg" p-id="1863" xmlns:xlink="http://www.w3.org/1999/xlink" width="375.9765625" height="200"><path d="M262.041286 0c124.231531 0 206.704392 79.626144 243.240668 151.940938l-101.252999 59.719608c-38.625234-57.630651-80.383904-90.111892-141.987669-90.111892-58.47033 0-100.229 34.570199-100.229 81.715102 0 44.154827 26.071009 70.205356 86.077337 92.917649l53.821375 20.254695c155.565893 55.541693 223.416052 123.637612 223.416052 228.413166 0 142.499669-134.676318 216.88294-258.907849 216.88294C135.720797 761.752686 33.38236 684.235979 0 581.549382l105.451393-55.541693c26.091489 58.69561 75.16151 111.083387 160.767808 111.083386 64.716722 0 116.94066-31.436762 116.940659-90.111891 0-59.740088-37.601235-85.933977-119.029617-116.326261l-46.981064-16.75262-7.536631-2.805756c-104.836994-39.587792-183.50058-94.330767-183.500579-213.032705C26.091489 82.780061 131.522402 0 262.020806 0z m847.707142 12.574705h136.765276v733.44936h-104.386435L761.076847 263.003844v483.020221h-136.765276V12.574705h105.430913L1109.768908 496.639404V12.574705z m811.191347 0L1563.912363 627.629327H1925.11769v118.394738H1345.698225L1702.746117 129.924964H1365.543321V12.574705h555.396454zM111.431546 997.948242l4.833274-1.495038 5.365754 17.858539-2.846717 0.819199-9.215988 2.928636c-6.553592 2.007038-14.499823 4.157435-22.794213 5.201914A70.205356 70.205356 0 0 1 76.185509 1023.998771c-10.936307 0-19.845096-2.416637-26.705888-7.434231-10.567667-7.639031-15.769581-20.479975-15.769581-37.990354v-32.952281c0-17.489899 5.201914-30.330844 15.769581-37.969874 9.093109-6.512632 21.503974-8.929269 37.273555-6.696952 11.878386 1.495038 23.019492 5.201914 30.433243 7.639031 1.658878 0.552959 3.153916 0.921599 4.444155 1.290238l-5.365754 17.879019-4.833274-1.495039-4.915194-1.617918a128.327526 128.327526 0 0 0-22.159333-5.263353c-10.751987-1.495038-18.923497-0.36864-23.920612 3.338236-5.386234 3.911675-8.17151 11.735026-8.17151 22.896612v32.972761c0 11.161587 2.785277 18.964457 8.17151 22.876132 4.997114 3.727356 13.168624 4.853754 23.920612 3.358716 10.199028-1.310718 20.398056-4.648954 27.074527-6.881272z m119.254897-79.318944c8.54015 10.629107 12.984304 25.33373 12.984305 43.745227 0 18.431978-4.444155 33.1366-12.984305 43.745228-4.628474 5.775353-10.567667 10.055668-17.407979 13.045744a58.10169 58.10169 0 0 1-23.388132 4.464635c-8.72447 0-16.50686-1.495038-23.367652-4.464635a44.912586 44.912586 0 0 1-17.428459-13.045744c-8.54015-10.608627-12.984304-25.31325-12.984304-43.745228 0-18.431978 4.444155-33.11612 12.984304-43.745227 4.628474-5.754873 10.567667-10.239988 17.407979-13.209585a58.16313 58.16313 0 0 1 23.388132-4.464634c8.72447 0 16.50686 1.495038 23.367652 4.464634 6.860792 2.990076 12.799985 7.454711 17.428459 13.209585z m-14.274543 75.775909c5.734393-7.086071 8.72447-18.227178 8.72447-32.030682 0-13.946863-2.969596-24.94461-8.72447-32.010201-5.734393-7.065592-14.643182-10.792947-26.521568-10.792947-11.673586 0-20.582375 3.727356-26.337248 10.792947-5.734393 7.065592-8.908789 18.063338-8.90879 32.010201 0 13.783023 3.153916 24.94461 8.90879 32.030682 5.734393 7.065592 14.643182 10.608627 26.337248 10.608627 11.878386 0 20.766695-3.543036 26.521568-10.608627z m117.22738-91.58645h18.534377V1021.950774h-20.766695l-50.810819-86.179737V1021.950774h-18.554857v-119.132017h20.766695l50.831299 86.364056v-86.364056z m114.073463 0h18.534378V1021.950774h-20.766696l-50.831299-86.179737V1021.950774h-18.534377v-119.132017h20.766695L447.692263 989.182813v-86.364056z m62.668725 100.331399h50.278339v18.616298h-68.812717v-118.947697h64.532402v18.616297h-45.998024v27.545567h42.659788v18.616298h-42.659788v35.553237z m145.796945-5.201914l4.812794-1.495038 5.386233 17.858539-2.846716 0.819199-9.215989 2.928636c-6.553592 2.007038-14.499823 4.157435-22.814693 5.201914a70.205356 70.205356 0 0 1-10.567667 0.737279c-10.936307 0-19.845096-2.416637-26.705888-7.434231-10.567667-7.639031-15.769581-20.479975-15.769581-37.990354v-32.952281c0-17.489899 5.201914-30.330844 15.769581-37.969874 9.093109-6.512632 21.503974-8.929269 37.273555-6.696952 11.878386 1.495038 22.999012 5.201914 30.433244 7.639031 1.658878 0.552959 3.153916 0.921599 4.444154 1.290238l-5.386233 17.879019-4.812794-1.495039-4.935674-1.617918a128.327526 128.327526 0 0 0-22.138854-5.263353c-10.772467-1.495038-18.923497-0.36864-23.941091 3.338236-5.365754 3.911675-8.15103 11.735026-8.15103 22.896612v32.972761c0 11.161587 2.785277 18.964457 8.15103 22.876132 5.017594 3.727356 13.168624 4.853754 23.941091 3.358716 10.199028-1.310718 20.398056-4.648954 27.074528-6.881272z m100.700039-95.129485v18.616297h-28.917726V1021.950774h-18.554857v-100.51572h-28.753886v-18.636777h76.226469z m143.769427 0v18.616297h-28.958685V1021.950774h-18.534378v-100.51572h-28.753885v-18.636777h76.226468z m106.823552 15.810541c8.51967 10.629107 12.984304 25.33373 12.984304 43.745227 0 18.431978-4.464635 33.1366-12.984304 43.745228-4.648954 5.775353-10.588147 10.055668-17.448939 13.045744a58.10169 58.10169 0 0 1-23.347172 4.464635c-8.72447 0-16.52734-1.495038-23.388132-4.464635a44.912586 44.912586 0 0 1-17.428459-13.045744c-8.54015-10.608627-12.984304-25.31325-12.984304-43.745228 0-18.431978 4.444155-33.11612 12.984304-43.745227 4.628474-5.754873 10.567667-10.239988 17.428459-13.209585a58.16313 58.16313 0 0 1 23.367652-4.464634c8.72447 0 16.50686 1.495038 23.367652 4.464634 6.860792 2.990076 12.799985 7.454711 17.448939 13.209585z m-14.295023 75.775909c5.754873-7.086071 8.72447-18.227178 8.72447-32.030682 0-13.946863-2.969596-24.94461-8.72447-32.010201-5.734393-7.065592-14.643182-10.792947-26.521568-10.792947-11.673586 0-20.582375 3.727356-26.337248 10.792947-5.734393 7.065592-8.888309 18.063338-8.88831 32.010201 0 13.783023 3.153916 24.94461 8.88831 32.030682 5.754873 7.065592 14.663662 10.608627 26.337248 10.608627 11.878386 0 20.787175-3.543036 26.521568-10.608627z m121.302895 8.744949h50.278339v18.616298h-68.812717v-118.947697h64.532402v18.616297h-45.998024v27.545567h42.659788v18.616298h-42.659788v35.553237z m83.640219 18.800618h-18.718697l12.226545-119.132017h30.433244l22.814692 91.75029 22.814693-91.75029h30.412763l12.247026 119.132017h-18.739178l-10.014708-98.836362L1255.627293 1021.950774h-21.503974L1208.31855 923.114412l-10.199028 98.836362z m209.407749-108.33907c7.98719 7.249911 12.431345 17.674219 12.431345 28.856285a39.137233 39.137233 0 0 1-25.23133 37.048276 43.417548 43.417548 0 0 1-14.643182 2.600956h-32.276441V1021.950774h-18.554858v-119.132017h50.831299c4.997114 0 10.014708 0.921599 14.643182 2.785276 4.833274 1.863678 9.093109 4.464635 12.799985 8.007671z m-27.443167 49.88922c10.199028 0 21.340134-7.270391 21.340134-21.032935 0-13.783023-11.141107-21.032935-21.340134-21.032935h-32.276441v42.06587h32.276441z m147.271503-44.851146c8.51967 10.608627 12.984304 25.31325 12.984305 43.724747 0 18.431978-4.464635 33.1366-12.984305 43.745228-4.648954 5.775353-10.588147 10.055668-17.448939 13.045744a58.10169 58.10169 0 0 1-23.347172 4.464635c-8.72447 0-16.50686-1.495038-23.367652-4.464635a44.871626 44.871626 0 0 1-17.448939-13.045744c-8.51967-10.608627-12.984304-25.31325-12.984304-43.745228 0-18.431978 4.464635-33.11612 12.984304-43.745227 4.648954-5.754873 10.567667-10.239988 17.448939-13.209585a58.14265 58.14265 0 0 1 23.347172-4.464634c8.72447 0 16.52734 1.495038 23.367652 4.464634 6.860792 2.990076 12.799985 7.454711 17.448939 13.209585z m-14.274543 75.755429c5.734393-7.086071 8.70399-18.227178 8.70399-32.030682 0-13.946863-2.969596-24.94461-8.70399-32.010201-5.754873-7.065592-14.663662-10.792947-26.542048-10.792947-11.673586 0-20.582375 3.727356-26.316768 10.792947-5.775353 7.065592-8.929269 18.063338-8.92927 32.010201 0 13.783023 3.153916 24.94461 8.90879 32.030682 5.754873 7.065592 14.663662 10.608627 26.337248 10.608627 11.878386 0 20.787175-3.543036 26.542048-10.608627z m170.270516-91.402131h18.718698A151.551818 151.551818 0 0 1 1697.789963 948.222862c-4.423675 17.674219-11.120627 32.9318-17.05982 46.346185l-4.239355 9.994228c-2.662397 6.348792-4.915194 12.165105-6.143992 17.367019h-25.02653c-1.044479-4.648954-2.519037-9.830388-4.259835-15.482862l-3.338236-10.772467a750.03814 750.03814 0 0 1-9.666549-32.9318c-3.153916 12.656625-6.840312 24.002531-10.199027 34.426838l-4.710395 15.032302a160.542527 160.542527 0 0 0-2.703357 9.727989H1585.969297c-1.802238-6.840312-4.997114-14.684142-8.86783-23.511012l-5.324793-12.124146a233.61508 233.61508 0 0 1-13.250544-38.092754 145.674065 145.674065 0 0 1-4.464635-45.219786h18.739178c-2.109437 29.450205 6.737912 54.128575 15.667181 74.99767l3.973115 9.134069c1.863678 4.300795 3.543036 8.19199 5.201914 12.287986 0.757759-2.600957 1.658878-5.201914 2.600957-7.987191l2.662397-8.27391c7.127031-22.568933 14.704622-49.377221 15.708141-80.158624h18.718697c1.126399 32.767961 10.567667 62.730165 18.186218 87.121816 0.921599 3.338236 2.047998 6.512632 2.969597 9.482228 1.658878-4.095995 3.317756-8.19199 5.386233-12.472305l3.911676-9.134069c8.847349-20.869095 17.817579-45.547465 15.564781-74.99767z m58.04025 100.14708h50.25786v18.616298h-68.812717v-118.947697h64.552882v18.616297h-45.998025v27.545567h42.659789v18.616298h-42.659789v35.553237z m139.673433 18.800618c-0.757759-16.75262-11.325426-27.176927-26.521568-39.833553h-25.59997V1021.950774h-18.554857v-118.947698h50.831299c5.181434 0 10.014708 0.921599 14.827502 2.600957 4.648954 1.863678 9.093109 4.648954 12.615665 8.007671 7.96671 7.454711 12.431345 17.674219 12.431345 28.856285 0 11.345906-4.464635 21.585894-12.431345 28.856285a38.502354 38.502354 0 0 1-10.219508 7.065592c3.153916 3.174396 6.143993 6.348792 8.908789 10.055668 7.782391 10.035188 11.694066 20.848615 12.247025 32.767961v0.737279h-18.554857z m-52.121538-58.44985h32.276442c10.383348 0 21.319654-7.454711 21.319654-21.032935 0-13.598704-10.936307-20.848615-21.319654-20.848615h-32.276442v41.88155z" p-id="1864"></path></svg>