<?xml version="1.0" standalone="no"?><!DOCTYPE svg PUBLIC "-//W3C//DTD SVG 1.1//EN" "http://www.w3.org/Graphics/SVG/1.1/DTD/svg11.dtd"><svg t="1764663605364" class="icon" viewBox="0 0 2416 1024" version="1.1" xmlns="http://www.w3.org/2000/svg" p-id="2169" xmlns:xlink="http://www.w3.org/1999/xlink" width="471.875" height="200"><path d="M509.93152 331.83744v-75.71456c0-27.46368-16.54784-51.83488-41.8816-62.73024L0 0v41.984l417.36192 172.66688c14.47936 5.69344 14.47936 26.43968 0 32.1536L0 419.4304v168.50944l251.35104-104.22272 165.4784 68.44416c14.49984 5.71392 14.49984 26.43968 0 32.1536L0 756.98176V1024l468.04992-193.39264a67.7888 67.7888 0 0 0 41.8816-62.73024v-173.69088c0-27.48416-16.54784-51.85536-41.8816-62.75072l-166.03136-68.42368 166.03136-68.44416a67.7888 67.7888 0 0 0 41.8816-62.73024z m372.87936-75.71456l37.23264 145.69472 41.90208-145.69472h39.81312l39.3216 145.69472 38.76864-145.69472h29.4912l-50.176 175.77984H1021.952l-41.3696-151.40864-42.92608 151.40864h-37.76512l-48.59904-175.77984h31.5392z m271.52384 96.4608c1.024 14.49984 2.58048 21.74976 7.22944 31.08864 8.8064 16.5888 28.4672 27.48416 48.10752 27.48416 23.77728 0 39.30112-11.40736 46.01856-33.71008h32.58368c-8.27392 37.84704-36.72064 59.10528-79.13472 59.10528-52.736 0-86.36416-36.29056-86.36416-93.32736 0-55.45984 33.62816-92.79488 83.78368-92.79488 53.26848 0 82.2272 36.29056 82.2272 101.62176h-134.4512v0.512z m94.12608-53.94432c-8.27392-13.98784-24.84224-22.28224-41.90208-22.28224-29.4912 0-48.08704 18.65728-51.712 52.36736h101.888c-1.55648-15.5648-3.62496-22.81472-8.27392-30.08512z m69.81632-109.38368h29.98272v93.30688c12.41088-20.72576 29.4912-30.57664 54.31296-30.57664 43.43808 0 74.46528 37.84704 74.46528 92.28288 0 54.43584-29.4912 91.25888-73.9328 91.25888-24.33024 0-40.3456-9.85088-55.86944-32.6656v29.04064h-28.95872V189.2352z m30.5152 153.96864c0 38.37952 21.7088 66.88768 50.176 66.88768 27.38176 0 45.48608-25.92768 45.48608-65.8432 0-41.984-18.10432-67.91168-46.53056-67.91168-28.4672 0-49.152 27.46368-49.152 66.8672z m182.55872 14.5408c-0.53248 31.08864 19.12832 51.32288 50.176 51.32288 27.91424 0 48.08704-17.63328 48.08704-41.984 0-24.90368-19.1488-39.936-50.176-39.936-3.09248 0-5.69344 0-10.3424 0.512v-26.95168h7.76192c32.07168 0 50.688-14.00832 50.688-38.912 0-23.30624-18.10432-38.35904-45.52704-38.35904-29.47072 0-46.53056 17.63328-47.57504 48.7424H1502.4128c2.048-48.20992 31.5392-76.20608 80.15872-76.20608 44.99456 0 76.53376 25.9072 76.53376 63.24224 0 24.8832-17.57184 47.7184-41.3696 53.92384 28.95872 7.2704 44.48256 26.97216 44.48256 55.99232 0 39.40352-33.62816 67.39968-81.2032 67.39968-49.64352 0-83.27168-32.1536-82.7392-78.80704h33.09568zM884.36736 618.53696h-31.5392v-24.3712h31.5392c0.512-29.04064 1.024-35.26656 5.16096-45.62944 6.20544-16.5888 22.24128-25.3952 46.03904-25.3952 4.64896 0 8.8064 0.512 16.54784 1.024v26.95168c-7.24992-2.048-10.3424-2.048-14.99136-2.048-10.3424 0-18.10432 5.16096-20.6848 14.49984-2.08896 6.22592-2.08896 10.89536-2.08896 30.06464h37.76512v24.3712h-37.76512v151.40864h-29.98272v-150.87616zM1128.448 681.7792c0 56.5248-33.60768 93.32736-85.34016 93.32736-50.66752 0-84.29568-37.84704-84.29568-93.83936 0-55.48032 34.14016-92.30336 85.34016-92.30336 50.176 0.53248 84.29568 37.86752 84.29568 92.81536z m-137.05216-1.55648c0 43.02848 19.12832 69.48864 51.2 69.48864 32.07168 0 53.26848-26.46016 53.26848-67.42016 0-41.472-20.6848-67.91168-52.75648-67.91168-32.0512 0-51.712 25.3952-51.712 65.8432z m282.89024 68.95616c-8.8064 15.5648-28.95872 24.8832-52.75648 24.8832-24.28928 0-43.4176-9.8304-53.78048-26.95168-6.71744-11.40736-8.8064-23.3472-8.8064-52.87936v-100.06528h30.02368v105.75872c0 33.1776 12.41088 48.7424 37.74464 48.7424 16.54784 0 31.0272-7.7824 39.3216-20.74624 5.16096-8.2944 6.18496-18.14528 6.18496-49.2544v-83.98848h30.0032v175.75936h-28.95872v-21.25824h1.024z m93.5936-133.75488c13.45536-17.63328 29.4912-24.90368 53.28896-24.90368 24.30976 0 43.43808 9.85088 53.78048 26.97216 6.71744 11.40736 8.8064 23.3472 8.8064 52.87936v100.06528h-30.5152v-105.75872c0-33.71008-12.41088-48.7424-37.76512-48.7424-17.05984 0-31.0272 7.7824-39.30112 21.25824-5.18144 8.2944-6.20544 17.6128-6.20544 49.2544v83.98848h-30.5152v-175.75936h28.44672v20.74624z m275.6608 154.50112v-29.04064c-15.50336 23.3472-32.0512 32.6656-55.84896 32.6656-43.95008 0-73.9328-36.80256-73.9328-90.7264 0-54.96832 30.49472-92.81536 74.46528-92.81536 24.82176 0 41.8816 9.85088 54.29248 30.59712v-93.32736h30.0032V769.4336h-28.95872v0.512z m-97.21856-87.10144c0 39.936 17.59232 65.8432 45.50656 65.8432 28.4672 0 50.176-28.50816 50.176-66.88768 0-39.40352-20.1728-66.88768-48.61952-66.88768-28.44672 0-47.06304 25.92768-47.06304 67.93216z m278.24128 87.10144c-1.55648-9.33888-2.06848-12.45184-3.11296-21.77024-14.99136 18.14528-32.0512 25.9072-56.36096 25.9072-37.76512 0-63.0784-21.77024-63.0784-53.39136 0-23.3472 12.9024-39.40352 38.76864-47.18592 8.27392-2.60096 21.7088-5.18144 37.23264-7.24992 9.8304-1.55648 21.21728-3.11296 40.8576-4.66944-0.512-22.81472-1.55648-29.55264-7.76192-36.29056-6.20544-6.7584-17.05984-10.89536-30.5152-10.89536-25.84576 0-38.76864 11.40736-40.3456 35.26656h-31.5392c3.11296-21.79072 7.24992-32.6656 18.6368-42.51648 12.3904-11.40736 32.0512-18.16576 53.248-18.16576 26.37824 0 47.06304 8.8064 58.44992 25.92768 9.3184 12.96384 10.8544 25.92768 10.3424 81.92-0.512 35.26656 1.024 53.92384 5.69344 73.1136h-30.5152z m-89.98912-48.20992c0 17.6128 13.45536 27.99616 35.16416 27.99616 18.6368 0 33.09568-6.7584 41.90208-20.23424 5.16096-7.7824 7.22944-18.14528 7.22944-37.84704v-6.22592c-62.5664 4.15744-84.29568 13.49632-84.29568 36.31104z m193.9456-127.03744h39.30112v24.3712h-39.3216v93.83936c0 19.70176 0.53248 23.3472 3.62496 27.48416 3.11296 4.13696 10.3424 6.73792 18.6368 6.73792 6.20544 0 11.8784-1.024 17.05984-2.60096v25.92768c-13.96736 2.60096-19.12832 3.11296-26.37824 3.11296-16.03584 0-30.0032-7.24992-37.23264-19.18976-4.13696-7.7824-5.69344-15.03232-5.69344-32.1536v-103.66976h-32.07168v-24.3712h32.07168v-42.51648h30.0032v43.02848z m66.19136-66.88768h30.0032v35.26656h-30.0032v-35.26656z m30.5152 66.88768v175.75936h-30.0032v-175.75936h30.0032z m199.61856 87.10144c0 56.5248-33.60768 93.32736-85.31968 93.32736-50.688 0-84.29568-37.84704-84.29568-93.83936 0-55.48032 34.11968-92.30336 85.31968-92.30336 50.176 0.53248 84.29568 37.86752 84.29568 92.81536z m-137.05216-1.55648c0 43.02848 19.1488 69.48864 51.2 69.48864 32.07168 0 53.26848-26.46016 53.26848-67.42016 0-41.472-20.6848-67.91168-52.736-67.91168-32.07168 0-51.73248 25.3952-51.73248 65.8432z m196.01408-64.79872c13.45536-17.63328 29.4912-24.90368 53.26848-24.90368 24.30976 0 43.43808 9.85088 53.78048 26.97216 6.73792 11.40736 8.8064 23.3472 8.8064 52.87936v100.06528h-30.0032v-105.75872c0-33.71008-12.41088-48.7424-37.74464-48.7424-17.08032 0-31.04768 7.7824-39.3216 21.25824-5.16096 8.2944-6.20544 17.6128-6.20544 49.2544v83.98848h-29.98272v-175.75936h28.44672v20.74624h-1.024z" p-id="2170"></path></svg>